<svg width="62" height="65" viewBox="0 0 62 65" fill="none" xmlns="http://www.w3.org/2000/svg">
<path d="M56.9716 11.7736H4.29541V53.875H56.9716V11.7736Z" fill="#FFD31A" stroke="#373435" stroke-width="0.2" stroke-miterlimit="22.9256"/>
<path d="M9.45867 0.0450134C4.21926 0.0450134 0.00183105 4.41999 0.00183105 9.85496V54.5474C0.00183105 59.9824 4.21926 64.3574 9.45867 64.3574L52.5419 64.3573C57.7813 64.3573 62 59.9823 62 54.5473V9.85483C62 4.41999 57.7813 0.0450134 52.5419 0.0450134H9.45867ZM42.6314 17.1576L31.9672 45.7487L56.3384 46.798L6.80785 47.3755L17.1254 38.6727L42.6314 17.1576Z" fill="#800000"/>
<path d="M9.45735 0.0445251C4.21794 0.0445251 0 4.4199 0 9.85487V53.1361L59.5169 3.23388C57.7901 1.27644 55.312 0.0446575 52.5408 0.0446575L9.45735 0.0445251Z" fill="#800000" fill-opacity="0.105882"/>
</svg>
