<svg width="18" height="19" viewBox="0 0 18 19" fill="none" xmlns="http://www.w3.org/2000/svg">
<path d="M17.4818 14.1847L14.8802 11.4405C14.5308 11.074 14.063 10.8721 13.563 10.8721C13.0427 10.8721 12.5515 11.0881 12.1801 11.4799L11.1674 12.5474C10.3805 12.0862 9.33456 11.452 8.24866 10.307C7.16404 9.16304 6.56237 8.06349 6.12274 7.22931L7.13641 6.16132C7.89005 5.36506 7.90546 4.0876 7.17089 3.3138L4.56982 0.571247C4.22141 0.202873 3.75355 0 3.25234 0C2.74369 0 2.26251 0.206484 1.89324 0.582317C1.66986 0.772 0.548815 1.81541 0.131003 3.96725C-0.453978 6.97917 0.890079 9.8771 4.7702 13.9698C9.10462 18.5384 12.8049 18.8936 13.8358 18.8936C14.0504 18.8936 14.1799 18.8796 14.2144 18.8753C16.2359 18.6255 16.9596 17.679 17.4881 16.9879C18.1729 16.0921 18.1705 14.9135 17.4818 14.1847ZM16.6185 16.2487C16.1218 16.8983 15.6527 17.5118 14.0845 17.7056C14.0837 17.7057 13.9979 17.7158 13.8358 17.7158C12.9135 17.7158 9.59079 17.3856 5.56003 13.137C1.98186 9.36277 0.725963 6.77449 1.22524 4.20341C1.58966 2.32652 2.55716 1.52877 2.59476 1.49846L2.62812 1.47248L2.65738 1.44154C2.81889 1.27141 3.03015 1.17767 3.25227 1.17767C3.45451 1.17767 3.64156 1.25759 3.77947 1.40347L6.38113 4.14665C6.68047 4.46195 6.66454 4.99253 6.34606 5.32902L5.1997 6.53668L5.18086 6.55749C4.88212 6.90443 4.91726 7.3733 5.08183 7.67863C5.55668 8.58213 6.20711 9.81955 7.45869 11.1396C8.70609 12.4548 9.87799 13.14 10.7325 13.6397C10.8181 13.6904 10.9947 13.7753 11.2158 13.7753C11.4769 13.7753 11.7166 13.6588 11.894 13.4464L12.9698 12.3124C13.1305 12.143 13.341 12.0497 13.5629 12.0497C13.7656 12.0497 13.9536 12.1298 14.0912 12.2741L16.6911 15.0165C17.0213 15.366 16.885 15.9002 16.6185 16.2487Z" fill="#FFD31A"/>
</svg>
